<svg width="36" height="40" viewBox="0 0 36 40" fill="none" xmlns="http://www.w3.org/2000/svg">
<g clip-path="url(#clip0)">
<path d="M22.1469 2.01345C28.8166 2.01345 32.9418 5.03802 32.9418 7.84085C32.9421 8.00225 32.9058 8.16167 32.8354 8.30752C32.765 8.45336 32.6624 8.58195 32.535 8.6839L28.182 12.973L26.0096 15.1086L28.8574 16.2374C30.335 16.617 31.632 17.49 32.5258 18.7064C33.4195 19.9229 33.8543 21.4069 33.7554 22.9037C33.7535 23.6531 33.5955 24.3941 33.2911 25.0813C32.9869 25.7683 32.5426 26.387 31.9858 26.8993L24.0143 34.7284C21.3078 37.0424 17.778 38.209 14.1978 37.9728C6.78552 37.9728 2.83735 34.7324 2.83735 32.395C2.8206 32.2233 2.84093 32.05 2.897 31.8865C2.95309 31.723 3.04367 31.5729 3.16282 31.4461L3.20349 31.4101L3.24418 31.3803L7.85544 26.8514L7.9368 26.7854L8.06292 26.6316L9.69019 24.6838L7.39168 23.575C6.1376 23.073 5.0797 22.1905 4.37238 21.0562C3.66504 19.922 3.34529 18.5955 3.45979 17.2701C3.46423 16.4486 3.63954 15.6365 3.97498 14.8839C4.31043 14.1311 4.79892 13.4537 5.41048 12.8931L13.3719 5.07199C14.5579 4.02045 15.9434 3.20903 17.4491 2.6842C18.9549 2.15936 20.5514 1.93144 22.1469 2.01345ZM22.1469 0.0157191C20.2768 -0.0719614 18.4076 0.20782 16.649 0.838668C14.8904 1.46951 13.2777 2.43874 11.9053 3.68956L3.97238 11.4807C3.16903 12.2255 2.52883 13.1235 2.09095 14.1196C1.65307 15.1158 1.4267 16.1891 1.4257 17.2741C1.30881 18.9718 1.73312 20.663 2.63968 22.1129C3.54624 23.5629 4.89005 24.6995 6.48447 25.365L1.80608 29.9598C1.47058 30.2711 1.20734 30.6498 1.03429 31.07C0.861244 31.4903 0.782448 31.9423 0.803275 32.395C0.803275 36.1189 5.81323 39.9705 14.1978 39.9705C16.247 40.0962 18.3011 39.8195 20.2403 39.1565C22.1794 38.4934 23.9644 37.4574 25.491 36.1089L33.4239 28.3176C34.1704 27.6191 34.7649 26.7793 35.1715 25.8488C35.5781 24.9183 35.7884 23.9164 35.7895 22.9037C35.8849 21.0095 35.328 19.1388 34.2089 17.5931C33.0898 16.0475 31.4734 14.9169 29.6201 14.3835L33.9833 10.0963C34.3016 9.8104 34.555 9.46173 34.7268 9.07306C34.8985 8.6844 34.9848 8.26451 34.98 7.84085C34.9759 3.99521 30.1795 0.0157191 22.1469 0.0157191Z" fill="#550088"/>
<path d="M22.1469 2.01345C28.8166 2.01345 32.9418 5.03802 32.9418 7.84085C32.9421 8.00225 32.9058 8.16167 32.8354 8.30752C32.765 8.45336 32.6624 8.58195 32.535 8.6839L28.182 12.973L26.0096 15.1086L28.8574 16.2374C30.335 16.617 31.632 17.49 32.5258 18.7064C33.4195 19.9229 33.8543 21.4069 33.7554 22.9037C33.7535 23.6531 33.5955 24.3941 33.2911 25.0813C32.9869 25.7683 32.5426 26.387 31.9858 26.8993L24.0143 34.7284C21.3078 37.0424 17.778 38.209 14.1978 37.9728C6.78552 37.9728 2.83735 34.7324 2.83735 32.395C2.8206 32.2233 2.84093 32.05 2.897 31.8865C2.95309 31.723 3.04367 31.5729 3.16282 31.4461L3.20349 31.4101L3.24418 31.3803L7.85544 26.8514L7.9368 26.7854L8.06292 26.6316L9.69019 24.6838L7.39168 23.575C6.1376 23.073 5.0797 22.1905 4.37238 21.0562C3.66504 19.922 3.34529 18.5955 3.45979 17.2701C3.46423 16.4486 3.63954 15.6365 3.97498 14.8839C4.31043 14.1311 4.79892 13.4537 5.41048 12.8931L13.3719 5.07199C14.5579 4.02045 15.9434 3.20903 17.4491 2.6842C18.9549 2.15936 20.5514 1.93144 22.1469 2.01345ZM22.1469 0.0157191C20.2768 -0.0719614 18.4076 0.20782 16.649 0.838668C14.8904 1.46951 13.2777 2.43874 11.9053 3.68956L3.97238 11.4807C3.16903 12.2255 2.52883 13.1235 2.09095 14.1196C1.65307 15.1158 1.4267 16.1891 1.4257 17.2741C1.30881 18.9718 1.73312 20.663 2.63968 22.1129C3.54624 23.5629 4.89005 24.6995 6.48447 25.365L1.80608 29.9598C1.47058 30.2711 1.20734 30.6498 1.03429 31.07C0.861244 31.4903 0.782448 31.9423 0.803275 32.395C0.803275 36.1189 5.81323 39.9705 14.1978 39.9705C16.247 40.0962 18.3011 39.8195 20.2403 39.1565C22.1794 38.4934 23.9644 37.4574 25.491 36.1089L33.4239 28.3176C34.1704 27.6191 34.7649 26.7793 35.1715 25.8488C35.5781 24.9183 35.7884 23.9164 35.7895 22.9037C35.8849 21.0095 35.328 19.1388 34.2089 17.5931C33.0898 16.0475 31.4734 14.9169 29.6201 14.3835L33.9833 10.0963C34.3016 9.8104 34.555 9.46173 34.7268 9.07306C34.8985 8.6844 34.9848 8.26451 34.98 7.84085C34.9759 3.99521 30.1795 0.0157191 22.1469 0.0157191Z" fill="url(#paint0_linear)"/>
</g>
<defs>
<linearGradient id="paint0_linear" x1="18.3" y1="-1.18052e-08" x2="18.3" y2="40" gradientUnits="userSpaceOnUse">
<stop stop-color="#5B0488"/>
<stop offset="1" stop-color="#F87282"/>
</linearGradient>
<clipPath id="clip0">
<rect width="35" height="40" fill="white" transform="translate(0.800003)"/>
</clipPath>
</defs>
</svg>
