<svg width="97" height="20" viewBox="0 0 97 20" fill="none" xmlns="http://www.w3.org/2000/svg">
<path d="M11.7157 12.0728C8.73423 11.6132 6.15926 11.2161 6.15926 9.66322C6.17089 9.39507 6.27552 9.13107 6.46685 8.88705C6.65818 8.64303 6.93227 8.42403 7.27266 8.24322C7.61305 8.0624 8.01271 7.92348 8.44765 7.83482C8.88259 7.74616 9.34383 7.70958 9.80367 7.72727C12.3201 7.72727 13.0769 8.67261 13.812 9.58716C14.4181 10.344 14.9905 11.0588 16.5297 11.0588C16.8193 11.0678 17.1091 11.0425 17.3815 10.9845C17.6539 10.9266 17.9033 10.8371 18.1147 10.7215C18.3261 10.6059 18.495 10.4666 18.6115 10.312C18.7279 10.1574 18.7893 9.99067 18.792 9.82187C18.792 8.2256 15.328 6.57521 9.5335 6.57521C4.27132 6.57521 0.454549 8.19621 0.454549 10.4299C0.454549 13.411 4.5495 14.0279 8.16104 14.5724C11.12 15.018 13.6749 15.403 13.6749 16.9353C13.6749 18.1485 12.1766 18.8712 9.66658 18.8712C6.82384 18.8712 6.03099 17.9054 5.26459 16.9712C4.6489 16.2214 4.06689 15.5131 2.4435 15.5131C0.913106 15.5131 0 16.0039 0 16.8294C0 18.3734 3.61635 19.9701 9.66658 19.9701C15.3857 19.9701 19.3805 18.4172 19.3805 16.1943C19.3805 13.2547 15.308 12.6262 11.7157 12.0723V12.0728ZM49.5098 6.57521C49.1592 6.55752 48.8061 6.5838 48.4745 6.65226C48.1428 6.72073 47.8403 6.82979 47.5872 6.9721C47.3341 7.11441 47.1364 7.28665 47.0074 7.47721C46.8784 7.66777 46.8211 7.87221 46.8394 8.07675C46.8394 8.95864 47.71 9.48497 48.6319 10.043C49.6492 10.658 50.7002 11.2949 50.7002 12.4927C50.7002 15.8355 46.942 18.5274 43.8315 18.5274C43.5166 18.5354 43.2023 18.5056 42.908 18.4399C42.6137 18.3743 42.3457 18.2741 42.1207 18.1457C41.4425 17.7444 41.1122 17.0347 41.1403 16.0366L41.2317 7.31105C41.2462 7.20254 41.2182 7.09352 41.1497 6.99223C41.0813 6.89094 40.9741 6.80004 40.8364 6.72639C40.6401 6.64871 40.4165 6.59748 40.1818 6.57641C39.9472 6.55534 39.7075 6.56498 39.48 6.60461L35.0331 7.13188C34.78 7.14306 34.5426 7.20764 34.3655 7.31348C34.1883 7.41933 34.0837 7.55916 34.0711 7.70674V7.78559C34.0711 8.04782 34.407 8.22607 34.763 8.41458C35.0772 8.54469 35.3345 8.71591 35.5142 8.91447C35.694 9.11302 35.7912 9.33337 35.7979 9.55777V13.2066C35.7979 16.5373 32.8822 18.526 30.0636 18.526C29.7601 18.5316 29.4579 18.5007 29.176 18.4351C28.894 18.3696 28.6383 18.2709 28.4249 18.1452C27.7387 17.7393 27.3908 17.0286 27.4188 16.0879L27.5094 7.30872C27.5243 7.21505 27.5032 7.12063 27.4478 7.03227C27.3923 6.94392 27.3038 6.86383 27.1888 6.79778C26.9777 6.72368 26.7431 6.67511 26.499 6.65499C26.2549 6.63487 26.0063 6.6436 25.7682 6.68067L20.9461 7.13094C20.7022 7.14874 20.4769 7.21614 20.3101 7.32125C20.1434 7.42636 20.0458 7.5624 20.0346 7.70534V7.78419C20.0346 8.04642 20.3713 8.22467 20.7273 8.41318C21.0414 8.54331 21.2986 8.71455 21.4782 8.91311C21.6578 9.11167 21.7548 9.332 21.7614 9.55637V14.9223C21.7614 19.4998 26.8384 19.9939 29.0206 19.9939C30.5244 20.0168 32.0129 19.8137 33.3426 19.4043C34.6723 18.9948 35.7982 18.3927 36.6116 17.6562C37.0703 18.3758 37.9129 18.9911 39.0159 19.4117C40.119 19.8324 41.4245 20.0364 42.7412 19.9939C48.381 19.9939 54.0897 16.862 54.0897 10.8764C54.0897 8.2214 52.3356 6.57195 49.5106 6.57195L49.5098 6.57521ZM66.5116 12.8441C64.4232 13.0351 62.3046 13.0897 60.1953 13.0069C60.1149 12.6169 60.0756 12.2244 60.0774 11.8315C60.0774 9.51484 62.2604 7.83319 65.2674 7.83319C66.3884 7.84023 67.462 8.09713 68.2673 8.55101C69.0726 9.0049 69.5483 9.62121 69.5965 10.2731C69.6446 12.1862 68.0613 12.6458 66.5092 12.8441H66.5116ZM75.3276 15.465C75.1079 15.4191 74.8686 15.4155 74.6452 15.4548C74.4217 15.4942 74.2259 15.5743 74.0867 15.6834L74.0682 15.7002C73.119 16.8046 70.5272 17.5759 67.7639 17.5759C64.4946 17.5759 61.9477 16.4127 60.7412 14.3783C63.0208 14.5315 65.3272 14.4818 67.5811 14.2308C72.246 13.6466 75.0318 12.167 75.0318 10.2717C75.0515 9.83105 74.9154 9.39278 74.6322 8.984C74.349 8.57523 73.9245 8.20466 73.3852 7.89524C71.8812 7.02782 69.4345 6.55795 66.4988 6.57568C60.0293 6.60321 55.3331 9.38092 55.3331 13.181C55.3331 17.2582 59.9491 19.9976 66.8179 19.9976C69.2165 20.0387 71.5509 19.5429 73.3403 18.6123C74.6417 17.9338 75.5228 17.0246 75.8471 16.0254V16.0203C75.8814 15.9072 75.8487 15.7907 75.7543 15.6899C75.6599 15.5891 75.5095 15.51 75.3276 15.4655V15.465ZM85.0752 18.4639C84.7656 18.3582 84.5071 18.2087 84.3236 18.0292C84.1401 17.8497 84.0377 17.6461 84.0258 17.4374V0.635304C84.0331 0.528672 83.9931 0.422744 83.9097 0.327706C83.8263 0.232669 83.7023 0.151718 83.5496 0.0926404C83.3298 0.0276764 83.0852 -0.00358922 82.8389 0.0017995C82.5926 0.00718822 82.3527 0.0490532 82.1419 0.123436L77.5531 1.4458C77.1458 1.56432 76.6849 1.69824 76.6849 2.01133V2.08972C76.6849 2.32022 76.9791 2.48447 77.319 2.67484C77.7856 2.93474 78.366 2.87362 78.366 3.50214V17.4378C78.362 17.6411 78.2738 17.8407 78.109 18.0199C77.9442 18.1991 77.7076 18.3525 77.4192 18.4672C77.2156 18.5425 77.0438 18.6436 76.9167 18.7629C76.7896 18.8822 76.7103 19.0167 76.6849 19.1563V19.2361C76.6849 19.5376 77.1274 19.7326 77.8112 19.7326H84.7169C85.4063 19.7326 85.8889 19.5282 85.8889 19.2361V19.1563C85.8889 18.8442 85.4929 18.6594 85.0752 18.4639ZM95.3871 18.4639C95.0778 18.3581 94.8194 18.2086 94.6361 18.0291C94.4527 17.8496 94.3504 17.6461 94.3385 17.4374V0.635304C94.3456 0.528186 94.3051 0.421816 94.2208 0.326498C94.1365 0.231179 94.0114 0.150144 93.8575 0.0912405C93.6378 0.0264037 93.3934 -0.00479172 93.1472 0.000596352C92.901 0.00598442 92.6613 0.0477784 92.4506 0.122037L87.8634 1.4458C87.457 1.56432 86.9968 1.69824 86.9968 2.01133V2.08972C86.9968 2.32022 87.2902 2.48447 87.6309 2.67484C88.0975 2.93474 88.6779 2.87362 88.6779 3.50214V17.4378C88.674 17.6411 88.5857 17.8409 88.4208 18.0201C88.2558 18.1993 88.0189 18.3526 87.7303 18.4672C87.5269 18.5425 87.3553 18.6436 87.2283 18.763C87.1013 18.8823 87.0221 19.0168 86.9968 19.1563V19.2361C86.9968 19.5376 87.4385 19.7326 88.1232 19.7326H95.028C95.7182 19.7326 96.2 19.5282 96.2 19.2361V19.1563C96.2 18.8442 95.8048 18.6594 95.3863 18.4639" fill="#7800BF"/>
</svg>
